<?xml version="1.0" standalone="no"?>
<!DOCTYPE svg PUBLIC "-//W3C//DTD SVG 20010904//EN"
 "http://www.w3.org/TR/2001/REC-SVG-20010904/DTD/svg10.dtd">
<svg version="1.0" xmlns="http://www.w3.org/2000/svg"
 width="816.000000pt" height="331.000000pt" viewBox="0 0 816.000000 331.000000"
 preserveAspectRatio="xMidYMid meet">
<metadata>
Created by potrace 1.15, written by Peter Selinger 2001-2017
</metadata>
<g transform="translate(0.000000,331.000000) scale(0.100000,-0.100000)"
fill="#5a8a1d" stroke="none">
<path d="M692 3293 c2 -14 17 -19 63 -23 73 -7 100 -20 113 -59 13 -37 -118
-2228 -143 -2395 -44 -295 -135 -457 -290 -516 -55 -20 -71 -22 -193 -16 -148
7 -183 -1 -220 -49 -16 -20 -22 -41 -22 -80 0 -62 21 -94 83 -128 36 -19 57
-22 157 -22 108 0 119 2 174 30 121 61 231 219 290 415 67 225 75 310 156
1632 48 784 72 1132 81 1146 7 11 24 25 36 31 16 8 221 11 632 11 l608 0 24
-26 24 -26 3 -1560 c1 -1125 -1 -1564 -9 -1574 -7 -9 -42 -14 -102 -16 -84 -3
-92 -5 -92 -23 0 -20 8 -20 353 -23 l352 -2 0 25 c0 24 -1 24 -107 27 l-108 3
-3 1571 c-2 1827 -19 1616 124 1624 74 4 89 8 92 23 3 16 -52 17 -1038 17
-986 0 -1041 -1 -1038 -17z"/>
<path d="M3289 1056 c-121 -43 -210 -122 -259 -230 -44 -97 -53 -157 -48 -312
4 -118 9 -149 31 -208 75 -201 226 -306 438 -306 228 0 418 146 419 321 0 62
-18 89 -61 89 -44 0 -50 -12 -52 -101 -2 -73 -6 -91 -33 -139 -77 -137 -260
-188 -409 -115 -133 65 -192 200 -202 462 l-6 153 379 2 379 3 3 35 c6 56 -26
155 -69 214 -45 63 -122 117 -198 140 -84 25 -230 21 -312 -8z m294 -20 c51
-25 90 -66 117 -122 24 -49 48 -180 37 -207 -6 -15 -35 -17 -312 -17 -350 0
-320 -11 -285 103 38 122 119 215 220 251 59 21 171 17 223 -8z"/>
<path d="M4358 1057 c-218 -76 -338 -259 -338 -517 0 -313 144 -495 419 -530
186 -24 375 62 445 202 61 123 12 251 -72 192 -22 -15 -23 -20 -17 -93 11
-121 -30 -197 -136 -250 -55 -27 -72 -31 -145 -31 -248 0 -356 157 -355 515 0
213 40 335 141 428 70 65 129 87 232 87 185 0 286 -95 256 -242 -11 -51 -10
-59 7 -78 23 -25 67 -26 90 0 23 25 31 99 15 153 -16 60 -68 112 -147 150 -64
29 -76 32 -198 35 -116 2 -137 0 -197 -21z"/>
<path d="M6481 1064 c-73 -19 -166 -70 -200 -110 -16 -17 -36 -54 -46 -80 -9
-27 -34 -82 -54 -123 -34 -70 -36 -80 -39 -191 -5 -143 20 -249 77 -338 94
-143 226 -212 411 -212 241 0 406 123 476 355 26 84 26 296 0 380 -26 87 -52
132 -109 193 -98 103 -199 142 -360 141 -56 0 -126 -7 -156 -15z m294 -35
c148 -70 215 -219 215 -476 0 -160 -18 -250 -68 -346 -37 -73 -80 -114 -152
-150 -69 -33 -205 -32 -281 4 -96 45 -161 130 -195 256 -8 32 -19 128 -25 213
-5 85 -12 162 -15 172 -4 15 -1 15 25 5 24 -9 34 -7 56 7 27 17 27 21 22 81
-3 34 -2 79 4 99 18 65 89 128 179 157 49 16 181 4 235 -22z"/>
<path d="M7609 1065 c-120 -32 -232 -123 -283 -227 -47 -97 -59 -168 -53 -318
4 -109 9 -149 29 -205 57 -163 169 -270 319 -304 66 -16 198 -13 260 5 163 48
279 174 279 305 0 63 -18 89 -62 89 -37 0 -45 -16 -50 -105 -6 -102 -34 -164
-101 -217 -95 -74 -231 -88 -342 -33 -131 63 -192 205 -202 467 l-6 148 379 2
379 3 3 43 c10 140 -106 295 -257 342 -74 23 -218 26 -292 5z m244 -19 c62
-23 104 -62 138 -131 27 -55 32 -77 33 -142 l1 -78 -307 -3 c-243 -2 -308 0
-308 10 0 29 30 124 55 174 33 68 117 145 181 167 60 19 156 21 207 3z"/>
<path d="M5010 1051 c0 -6 24 -11 53 -13 l52 -3 0 -495 0 -495 -52 -3 c-29 -2
-53 -7 -53 -13 0 -5 70 -9 170 -9 107 0 170 4 170 10 0 6 -25 10 -55 10 l-55
0 0 265 0 265 275 0 275 0 0 -265 0 -265 -55 0 c-30 0 -55 -4 -55 -10 0 -6 65
-10 175 -10 110 0 175 4 175 10 0 6 -25 10 -55 10 l-55 0 0 500 0 500 55 0
c30 0 55 5 55 10 0 6 -65 10 -175 10 -110 0 -175 -4 -175 -10 0 -5 25 -10 55
-10 l55 0 0 -225 0 -225 -275 0 -275 0 0 225 0 225 55 0 c30 0 55 5 55 10 0 6
-63 10 -170 10 -100 0 -170 -4 -170 -9z"/>
</g>
</svg>
